<svg xmlns="http://www.w3.org/2000/svg" version="1.1" xmlns:xlink="http://www.w3.org/1999/xlink" xmlns:svgjs="http://svgjs.dev/svgjs" width="2000" height="550" viewBox="0 0 2000 550"><g transform="matrix(1,0,0,1,-1.2120915825983047,-0.43751832868292695)"><svg viewBox="0 0 396 109" data-background-color="#333366" preserveAspectRatio="xMidYMid meet" height="550" width="2000" xmlns="http://www.w3.org/2000/svg" xmlns:xlink="http://www.w3.org/1999/xlink"><g id="tight-bounds" transform="matrix(1,0,0,1,0.23999413335445752,0.08670951589169817)"><svg viewBox="0 0 395.52 108.82658230624202" height="108.82658230624202" width="395.52"><g><svg viewBox="0 0 395.52 108.82658230624202" height="108.82658230624202" width="395.52"><g transform="matrix(1,0,0,1,0,67.25919377121018)"><svg viewBox="0 0 395.52 41.56738853503184" height="41.56738853503184" width="395.52"><g id="textblocktransform"><svg viewBox="0 0 395.52 41.56738853503184" height="41.56738853503184" width="395.52" id="textblock"><g><svg viewBox="0 0 395.52 41.56738853503184" height="41.56738853503184" width="395.52"><g transform="matrix(1,0,0,1,0,0)"><svg width="395.52" viewBox="4.449999809265137 -37.95000076293945 376.7699890136719 39.60000228881836" height="41.56738853503184" data-palette-color="#ffffff"><path d="M9.9 0L4.45 0 4.45-36.25 26.15-36.25 26.15-31.2 9.9-31.2 9.9-20.25 24.1-20.25 24.1-15.15 9.9-15.15 9.9 0ZM37.7-31.15L37.7-18.1 42.65-18.1Q44.65-18.1 46-18.8 47.35-19.5 48.12-20.5 48.9-21.5 49.22-22.65 49.55-23.8 49.55-24.7L49.55-24.7Q49.55-25.65 49.22-26.78 48.9-27.9 48.1-28.88 47.3-29.85 45.97-30.5 44.65-31.15 42.7-31.15L42.7-31.15 37.7-31.15ZM37.7 0L32.2 0 32.2-36.25 42.1-36.25Q44.95-36.25 47.32-35.5 49.7-34.75 51.42-33.27 53.15-31.8 54.1-29.68 55.05-27.55 55.05-24.8L55.05-24.8Q55.05-22.65 54.4-20.53 53.75-18.4 52.3-16.73 50.85-15.05 48.5-14 46.15-12.95 42.8-12.95L42.8-12.95 37.7-12.95 37.7 0ZM90.69-7.55L92.99-2.6Q92.39-2.15 91.32-1.63 90.24-1.1 88.79-0.65 87.34-0.2 85.57 0.1 83.79 0.4 81.79 0.4L81.79 0.4Q77.54 0.4 74.17-1.07 70.79-2.55 68.44-5.05 66.09-7.55 64.84-10.85 63.59-14.15 63.59-17.85L63.59-17.85Q63.59-21.95 65.07-25.4 66.54-28.85 69.09-31.35 71.64-33.85 75.07-35.25 78.49-36.65 82.34-36.65L82.34-36.65Q83.79-36.65 85.29-36.45 86.79-36.25 88.12-35.9 89.44-35.55 90.47-35.08 91.49-34.6 92.04-34.1L92.04-34.1Q91.64-33.5 91.42-33.1 91.19-32.7 90.94-32.27 90.69-31.85 90.39-31.3 90.09-30.75 89.59-29.85L89.59-29.85Q88.94-30.3 88.07-30.6 87.19-30.9 86.24-31.1 85.29-31.3 84.32-31.4 83.34-31.5 82.54-31.5L82.54-31.5Q79.64-31.5 77.17-30.43 74.69-29.35 72.89-27.53 71.09-25.7 70.07-23.3 69.04-20.9 69.04-18.3L69.04-18.3Q69.04-15.75 70.02-13.4 70.99-11.05 72.72-9.2 74.44-7.35 76.87-6.25 79.29-5.15 82.19-5.15L82.19-5.15Q83.74-5.15 85.19-5.45 86.64-5.75 87.82-6.15 88.99-6.55 89.77-6.95 90.54-7.35 90.69-7.55L90.69-7.55ZM94.44-18.1L94.44-18.1Q94.44-21.85 95.89-25.23 97.34-28.6 99.87-31.15 102.39-33.7 105.74-35.18 109.09-36.65 112.94-36.65L112.94-36.65Q116.74-36.65 120.12-35.18 123.49-33.7 126.02-31.15 128.54-28.6 130.02-25.23 131.49-21.85 131.49-18.1L131.49-18.1Q131.49-14.25 130.02-10.9 128.54-7.55 126.02-5.03 123.49-2.5 120.12-1.05 116.74 0.4 112.94 0.4L112.94 0.4Q109.09 0.4 105.74-1.05 102.39-2.5 99.87-5.03 97.34-7.55 95.89-10.9 94.44-14.25 94.44-18.1ZM99.89-18.05L99.89-18.05Q99.89-15.3 100.92-12.88 101.94-10.45 103.74-8.65 105.54-6.85 107.94-5.8 110.34-4.75 113.04-4.75L113.04-4.75Q115.74-4.75 118.12-5.8 120.49-6.85 122.27-8.65 124.04-10.45 125.06-12.88 126.09-15.3 126.09-18.1L126.09-18.1Q126.09-20.85 125.06-23.28 124.04-25.7 122.24-27.5 120.44-29.3 118.07-30.35 115.69-31.4 112.99-31.4L112.99-31.4Q110.29-31.4 107.89-30.35 105.49-29.3 103.72-27.5 101.94-25.7 100.92-23.25 99.89-20.8 99.89-18.05ZM164.19-36.25L169.64-36.25 169.64 1.65Q168.94 0.75 166.94-1.25 164.94-3.25 162.34-5.85 159.74-8.45 156.81-11.3 153.89-14.15 151.29-16.73 148.69-19.3 146.74-21.33 144.79-23.35 144.14-24.2L144.14-24.2 143.19-25.5 143.34-23.9 143.34 0 137.84 0 137.84-37.95Q138.39-37.25 139.66-35.95 140.94-34.65 142.66-32.93 144.39-31.2 146.46-29.2 148.54-27.2 150.66-25.15 152.79-23.1 154.86-21.13 156.94-19.15 158.66-17.45 160.39-15.75 161.64-14.45 162.89-13.15 163.39-12.5L163.39-12.5 164.34-11.1 164.19-12.8 164.19-36.25ZM199.29-34.25L199.29-34.25 197.34-29.8Q195.29-30.55 193.26-31 191.24-31.45 189.39-31.45L189.39-31.45Q186.24-31.45 184.36-30.15 182.49-28.85 182.49-26.85L182.49-26.85Q182.49-25.15 183.84-24.13 185.19-23.1 187.19-22.28 189.19-21.45 191.54-20.63 193.89-19.8 195.89-18.5 197.89-17.2 199.24-15.23 200.59-13.25 200.59-10.15L200.59-10.15Q200.59-7.75 199.71-5.83 198.84-3.9 197.11-2.5 195.39-1.1 192.81-0.35 190.24 0.4 186.79 0.4L186.79 0.4Q184.59 0.4 182.81 0.1 181.04-0.2 179.61-0.68 178.19-1.15 177.11-1.7 176.04-2.25 175.29-2.7L175.29-2.7 177.69-7.45Q179.69-6.3 182.14-5.6 184.59-4.9 186.59-4.9L186.59-4.9Q187.59-4.9 189.06-5.15 190.54-5.4 191.89-6.03 193.24-6.65 194.21-7.7 195.19-8.75 195.19-10.35L195.19-10.35Q195.19-11.8 194.41-12.83 193.64-13.85 192.36-14.63 191.09-15.4 189.46-16.03 187.84-16.65 186.14-17.32 184.44-18 182.81-18.75 181.19-19.5 179.91-20.58 178.64-21.65 177.86-23.08 177.09-24.5 177.09-26.5L177.09-26.5Q177.09-28.35 177.84-30.15 178.59-31.95 180.09-33.35 181.59-34.75 183.81-35.6 186.04-36.45 188.99-36.45L188.99-36.45Q190.79-36.45 192.51-36.15 194.24-35.85 195.64-35.48 197.04-35.1 198.01-34.75 198.99-34.4 199.29-34.25ZM220.18 0.4L220.18 0.4Q217.28 0.4 214.78-0.55 212.28-1.5 210.41-3.23 208.53-4.95 207.46-7.38 206.38-9.8 206.38-12.8L206.38-12.8 206.38-36.25 211.88-36.25 211.88-12.95Q211.88-11.2 212.51-9.73 213.13-8.25 214.26-7.13 215.38-6 216.88-5.38 218.38-4.75 220.18-4.75L220.18-4.75Q221.93-4.75 223.46-5.38 224.98-6 226.11-7.13 227.23-8.25 227.88-9.73 228.53-11.2 228.53-12.95L228.53-12.95 228.53-36.25 234.03-36.25 234.03-12.8Q234.03-9.8 232.96-7.38 231.88-4.95 230.01-3.23 228.13-1.5 225.61-0.55 223.08 0.4 220.18 0.4ZM266.03 0L242.53 0 242.53-36.25 248.03-36.25 248.03-5.2 266.03-5.2 266.03 0ZM264.18-36.25L287.73-36.25 287.73-31.05 278.58-31.05 278.58 0 273.13 0 273.13-31.05 264.18-31.05 264.18-36.25ZM299.27 0L299.27-36.25 304.72-36.25 304.72 0 299.27 0ZM339.97-36.25L345.42-36.25 345.42 1.65Q344.72 0.75 342.72-1.25 340.72-3.25 338.12-5.85 335.52-8.45 332.6-11.3 329.67-14.15 327.07-16.73 324.47-19.3 322.52-21.33 320.57-23.35 319.92-24.2L319.92-24.2 318.97-25.5 319.12-23.9 319.12 0 313.62 0 313.62-37.95Q314.17-37.25 315.45-35.95 316.72-34.65 318.45-32.93 320.17-31.2 322.25-29.2 324.32-27.2 326.45-25.15 328.57-23.1 330.65-21.13 332.72-19.15 334.45-17.45 336.17-15.75 337.42-14.45 338.67-13.15 339.17-12.5L339.17-12.5 340.12-11.1 339.97-12.8 339.97-36.25ZM378.92-7.55L381.22-2.6Q380.62-2.15 379.54-1.63 378.47-1.1 377.02-0.65 375.57-0.2 373.79 0.1 372.02 0.4 370.02 0.4L370.02 0.4Q365.77 0.4 362.39-1.07 359.02-2.55 356.67-5.05 354.32-7.55 353.07-10.85 351.82-14.15 351.82-17.85L351.82-17.85Q351.82-21.95 353.29-25.4 354.77-28.85 357.32-31.35 359.87-33.85 363.29-35.25 366.72-36.65 370.57-36.65L370.57-36.65Q372.02-36.65 373.52-36.45 375.02-36.25 376.34-35.9 377.67-35.55 378.69-35.08 379.72-34.6 380.27-34.1L380.27-34.1Q379.87-33.5 379.64-33.1 379.42-32.7 379.17-32.27 378.92-31.85 378.62-31.3 378.32-30.75 377.82-29.85L377.82-29.85Q377.17-30.3 376.29-30.6 375.42-30.9 374.47-31.1 373.52-31.3 372.54-31.4 371.57-31.5 370.77-31.5L370.77-31.5Q367.87-31.5 365.39-30.43 362.92-29.35 361.12-27.53 359.32-25.7 358.29-23.3 357.27-20.9 357.27-18.3L357.27-18.3Q357.27-15.75 358.24-13.4 359.22-11.05 360.94-9.2 362.67-7.35 365.09-6.25 367.52-5.15 370.42-5.15L370.42-5.15Q371.97-5.15 373.42-5.45 374.87-5.75 376.04-6.15 377.22-6.55 377.99-6.95 378.77-7.35 378.92-7.55L378.92-7.55Z" opacity="1" transform="matrix(1,0,0,1,0,0)" fill="#ffffff" class="wordmark-text-0" data-fill-palette-color="primary" id="text-0"></path></svg></g></svg></g></svg></g></svg></g><g transform="matrix(1,0,0,1,167.99125153331573,0)"><svg viewBox="0 0 59.53749693336854 57.446130955414006" height="57.446130955414006" width="59.53749693336854"><g><svg xmlns:x="http://ns.adobe.com/Extensibility/1.0/" xmlns:i="http://ns.adobe.com/AdobeIllustrator/10.0/" xmlns:graph="http://ns.adobe.com/Graphs/1.0/" xmlns="http://www.w3.org/2000/svg" xmlns:xlink="http://www.w3.org/1999/xlink" xmlns:a="http://ns.adobe.com/AdobeSVGViewerExtensions/3.0/" version="1.0" x="8" y="0" viewBox="9.973000526428223 0.5519155859947205 74.44244384765625 98.22407531738281" enable-background="new 0 0 100 100" xml:space="preserve" height="57.446130955414006" width="43.53749693336854" class="icon-icon-0" data-fill-palette-color="accent" id="icon-0"><g fill="#ffffff" data-fill-palette-color="accent"><path d="M19.506 72.277c-0.513 1.061-8.681 17.964-9.533 20.366 8.139 0.673 20.547 1.705 33.812 2.811L32.234 72.352 19.506 72.277z" fill="#ffffff" data-fill-palette-color="accent"></path><path d="M46.945 95.719l2.443 0.203c-5.003-6.858-9.357-12.753-9.357-12.753S43.233 88.961 46.945 95.719z" fill="#ffffff" data-fill-palette-color="accent"></path><path d="M84.304 33.886c-0.682-1.179-3.746-5.455-4.807-6.878-1.631-2.188-1.207-3.027-0.283-4.64 0.457-0.796-1.338-2.764-1.436-3.581-0.428-3.548-1.637-6.185-3.238-8.196 1.375-0.969 2.939-2.397 2.697-3.495-0.355-0.798-1.598-0.912-2.902-0.767-0.035-0.133-0.09-0.253-0.17-0.356-2.943-3.864-12.707-5.401-17.389-5.42C43.087 0.495 37.271 2.724 33.738 15.606c-0.542 1.975-0.841 3.975-0.91 5.967-0.438 0.447-0.77 0.827-0.926 1.042-1.255 1.727-1.323 3.173-0.602 4.197 0 0 0.833 0.99-0.454 1.816-1.068 0.686-2.444 1.93-3.15 3.555l1.58 0.683c1.021-3.144 3.48-4.288 4.125-3.785 0.105 0.271 0.26 0.524 0.465 0.752 0.943 3.245 2.502 6.325 4.613 9.069 4.914 6.391 1.662 12.521-2.385 17.195 6.792 7.59 16.993 18.75 22.875 24.048-10.755-6.807-25.172-23.632-25.172-23.632l-4.432 3.214c5.493 5.594 26.382 26.462 33.825 28.029 4.449 0.936 7.168-1.937 8.756-4.929 0.609 0.119 1.221 0.128 1.801 0.009 0.338-0.069 0.65-0.178 0.936-0.321-0.176 1.101-0.352 2.056-0.488 2.558-0.492 3.702-2.152 7.345-6.738 7.53C57.081 93.024 36.876 69.298 30.215 61.1l-3.399 1.683 5.67 4.286-7.689-3.949-2.029 2.887 0.768 0.339 9.512 3.754c0 0 12.167 14.346 22.403 26.329l21.038 1.756 7.604 0.591-9.273-16.333c1.873-1.055 2.498-3.685 1.357-6.435-1.34-3.224-4.598-5.392-7.279-4.842-0.572 0.117-1.07 0.349-1.49 0.672-0.477-0.633-0.922-1.248-1.311-1.842-2.035-3.107-4.984-4.807-4.371-11.856 0.982-11.303 12.754-5.322 16.139-7.353 3.15-1.889 1.266-3.969 1.312-5.459 0.088-2.748 1.627-2.182 1.729-2.903 0.164-1.175-0.885-1.271-0.887-1.45 0.01-0.47 1.717-0.898 1.43-1.573-0.238-0.557-0.979-1.997-1.197-2.567C79.771 35.583 85.257 35.53 84.304 33.886zM70.765 73.025c1.422-0.292 3.209 1.005 3.994 2.896 0.785 1.89 0.271 3.659-1.15 3.95s-3.211-1.006-3.994-2.896C68.827 75.085 69.343 73.316 70.765 73.025zM67.175 79.345c0.604 0.939 1.373 1.739 2.221 2.344-0.854 0.987-2.184 1.559-4.244 1.197C66.05 82.273 66.702 80.986 67.175 79.345zM71.251 8.038c1.754-0.781 4.941-0.989 5.092-0.647 0.096 0.424-2.152 2.6-3.881 3.37-1.701 0.757-2.469 0.29-2.795-0.372l-0.016-0.036C69.384 9.679 69.55 8.795 71.251 8.038zM65.03 9.037c1.111-1.531 3.709-3.276 4.074-3.116 0.332 0.24-0.535 3.314-1.664 4.868-1.094 1.506-1.992 1.484-2.596 1.083C64.233 11.392 63.935 10.543 65.03 9.037zM58.95 11.604c1.182-1.626 3.941-3.481 4.328-3.312 0.354 0.255-0.566 3.521-1.766 5.172-1.164 1.6-2.117 1.577-2.759 1.15C58.104 14.106 57.788 13.205 58.95 11.604zM52.52 14.465c1.256-1.728 4.188-3.699 4.599-3.519 0.375 0.271-0.603 3.741-1.876 5.495-1.234 1.7-2.25 1.676-2.931 1.223C51.621 17.124 51.285 16.165 52.52 14.465zM45.924 17.334c1.307-1.799 4.359-3.851 4.788-3.663 0.391 0.282-0.627 3.896-1.954 5.722-1.286 1.77-2.342 1.745-3.051 1.273C44.987 20.102 44.638 19.104 45.924 17.334zM39.354 20.151c1.35-1.859 4.503-3.978 4.945-3.784 0.404 0.291-0.647 4.023-2.018 5.909-1.328 1.828-2.419 1.802-3.151 1.315C38.388 23.01 38.026 21.979 39.354 20.151zM32.434 26.626c-0.748-0.586-1.111-1.623 0.226-3.461 1.358-1.869 4.529-4.001 4.974-3.806 0.406 0.292-0.652 4.047-2.03 5.944C34.268 27.143 33.17 27.116 32.434 26.626zM36.897 30.13c-2.261-0.237-2.788-1.202-2.729-2.101l0.006-0.048c0.128-0.875 0.843-1.708 3.104-1.471 2.332 0.245 5.83 1.972 5.782 2.425C42.901 29.441 39.195 30.372 36.897 30.13zM43.567 27.074c-2.248-0.235-2.771-1.194-2.713-2.088l0.006-0.047c0.127-0.87 0.838-1.698 3.085-1.462 2.318 0.244 5.795 1.959 5.748 2.411C49.536 26.39 45.852 27.315 43.567 27.074zM50.002 24.038c-2.176-0.229-2.683-1.156-2.627-2.022l0.006-0.045c0.123-0.842 0.812-1.644 2.987-1.416 2.245 0.236 5.611 1.898 5.566 2.334C55.78 23.375 52.214 24.271 50.002 24.038zM56.437 20.903c-2.091-0.219-2.577-1.11-2.522-1.942l0.006-0.044c0.117-0.809 0.779-1.579 2.869-1.36 2.155 0.227 5.388 1.823 5.345 2.242C61.987 20.267 58.562 21.127 56.437 20.903zM62.638 17.664c-1.969-0.207-2.426-1.045-2.375-1.828l0.006-0.042c0.111-0.761 0.732-1.486 2.701-1.279 2.027 0.213 5.07 1.716 5.029 2.11C67.86 17.065 64.636 17.874 62.638 17.664zM68.499 14.74c-1.852-0.194-2.281-0.983-2.234-1.721l0.006-0.039c0.104-0.716 0.689-1.399 2.541-1.204 1.91 0.201 4.773 1.614 4.734 1.986C73.417 14.177 70.382 14.938 68.499 14.74z" fill="#ffffff" data-fill-palette-color="accent"></path></g></svg></g></svg></g><g><rect width="167.99125153331573" height="3.748589995634139" y="52.697540959779865" x="227.52874846668428" fill="#ffffff" data-fill-palette-color="accent"></rect><rect width="167.99125153331573" height="3.748589995634139" y="52.697540959779865" x="0" fill="#ffffff" data-fill-palette-color="accent"></rect><rect width="167.99125153331573" height="3.748589995634139" y="45.20036096851159" x="227.52874846668428" fill="#ffffff" data-fill-palette-color="accent"></rect><rect width="167.99125153331573" height="3.748589995634139" y="45.20036096851159" x="0" fill="#ffffff" data-fill-palette-color="accent"></rect></g></svg></g><defs></defs></svg><rect width="395.52" height="108.82658230624202" fill="none" stroke="none" visibility="hidden"></rect></g></svg></g></svg>